<mxfile host="app.diagrams.net" agent="Mozilla/5.0 (Windows NT 10.0; Win64; x64; rv:134.0) Gecko/20100101 Firefox/134.0" version="26.0.5">
  <diagram name="Page-1" id="QWQ9UXCoQ91IYz2-iWc9">
    <mxGraphModel dx="1434" dy="754" grid="1" gridSize="10" guides="1" tooltips="1" connect="1" arrows="1" fold="1" page="1" pageScale="1" pageWidth="850" pageHeight="1100" math="0" shadow="0">
      <root>
        <mxCell id="0" />
        <mxCell id="1" parent="0" />
        <mxCell id="5gEWD4TGvUkW8O1AhhYX-3" value="" style="edgeStyle=orthogonalEdgeStyle;rounded=0;orthogonalLoop=1;jettySize=auto;html=1;labelBackgroundColor=none;strokeColor=#028090;fontColor=default;" edge="1" parent="1" source="5gEWD4TGvUkW8O1AhhYX-1" target="5gEWD4TGvUkW8O1AhhYX-2">
          <mxGeometry relative="1" as="geometry" />
        </mxCell>
        <mxCell id="5gEWD4TGvUkW8O1AhhYX-1" value="Actor" style="shape=umlActor;verticalLabelPosition=bottom;verticalAlign=top;html=1;labelBackgroundColor=none;fillColor=#F45B69;strokeColor=#028090;fontColor=#E4FDE1;" vertex="1" parent="1">
          <mxGeometry x="425" y="200" width="30" height="60" as="geometry" />
        </mxCell>
        <mxCell id="5gEWD4TGvUkW8O1AhhYX-5" value="" style="edgeStyle=orthogonalEdgeStyle;rounded=0;orthogonalLoop=1;jettySize=auto;html=1;labelBackgroundColor=none;strokeColor=#028090;fontColor=default;" edge="1" parent="1" source="5gEWD4TGvUkW8O1AhhYX-2" target="5gEWD4TGvUkW8O1AhhYX-4">
          <mxGeometry relative="1" as="geometry" />
        </mxCell>
        <mxCell id="5gEWD4TGvUkW8O1AhhYX-7" value="" style="edgeStyle=orthogonalEdgeStyle;rounded=0;orthogonalLoop=1;jettySize=auto;html=1;labelBackgroundColor=none;strokeColor=#028090;fontColor=default;" edge="1" parent="1" source="5gEWD4TGvUkW8O1AhhYX-2" target="5gEWD4TGvUkW8O1AhhYX-6">
          <mxGeometry relative="1" as="geometry" />
        </mxCell>
        <mxCell id="5gEWD4TGvUkW8O1AhhYX-8" style="edgeStyle=orthogonalEdgeStyle;rounded=0;orthogonalLoop=1;jettySize=auto;html=1;exitX=0.5;exitY=0.5;exitDx=0;exitDy=0;exitPerimeter=0;entryX=0.5;entryY=0;entryDx=0;entryDy=0;entryPerimeter=0;labelBackgroundColor=none;strokeColor=#028090;fontColor=default;" edge="1" parent="1" source="5gEWD4TGvUkW8O1AhhYX-2" target="5gEWD4TGvUkW8O1AhhYX-9">
          <mxGeometry relative="1" as="geometry">
            <mxPoint x="320" y="480" as="targetPoint" />
          </mxGeometry>
        </mxCell>
        <mxCell id="5gEWD4TGvUkW8O1AhhYX-2" value="Actor" style="shape=umlActor;verticalLabelPosition=bottom;verticalAlign=top;html=1;labelBackgroundColor=none;fillColor=#F45B69;strokeColor=#028090;fontColor=#E4FDE1;" vertex="1" parent="1">
          <mxGeometry x="425" y="340" width="30" height="60" as="geometry" />
        </mxCell>
        <mxCell id="5gEWD4TGvUkW8O1AhhYX-4" value="Actor" style="shape=umlActor;verticalLabelPosition=bottom;verticalAlign=top;html=1;labelBackgroundColor=none;fillColor=#F45B69;strokeColor=#028090;fontColor=#E4FDE1;" vertex="1" parent="1">
          <mxGeometry x="535" y="340" width="30" height="60" as="geometry" />
        </mxCell>
        <mxCell id="5gEWD4TGvUkW8O1AhhYX-10" value="" style="edgeStyle=orthogonalEdgeStyle;rounded=0;orthogonalLoop=1;jettySize=auto;html=1;labelBackgroundColor=none;strokeColor=#028090;fontColor=default;" edge="1" parent="1" source="5gEWD4TGvUkW8O1AhhYX-6" target="5gEWD4TGvUkW8O1AhhYX-9">
          <mxGeometry relative="1" as="geometry" />
        </mxCell>
        <mxCell id="5gEWD4TGvUkW8O1AhhYX-6" value="Actor" style="shape=umlActor;verticalLabelPosition=bottom;verticalAlign=top;html=1;labelBackgroundColor=none;fillColor=#F45B69;strokeColor=#028090;fontColor=#E4FDE1;" vertex="1" parent="1">
          <mxGeometry x="425" y="480" width="30" height="60" as="geometry" />
        </mxCell>
        <mxCell id="5gEWD4TGvUkW8O1AhhYX-9" value="Actor" style="shape=umlActor;verticalLabelPosition=bottom;verticalAlign=top;html=1;labelBackgroundColor=none;fillColor=#F45B69;strokeColor=#028090;fontColor=#E4FDE1;" vertex="1" parent="1">
          <mxGeometry x="315" y="480" width="30" height="60" as="geometry" />
        </mxCell>
      </root>
    </mxGraphModel>
  </diagram>
</mxfile>
